<svg width="16" height="18" viewBox="0 0 16 18" fill="none" xmlns="http://www.w3.org/2000/svg">
<path fill-rule="evenodd" clip-rule="evenodd" d="M16 5C16 7.76142 12.4183 10 8 10C3.58172 10 0 7.76142 0 5C0 2.23858 3.58172 0 8 0C12.4183 0 16 2.23858 16 5ZM8 12C11.2434 12 14.1262 10.6103 15.9533 8.45641C15.9842 8.63496 16 8.81632 16 9C16 11.7614 12.4183 14 8 14C3.58172 14 0 11.7614 0 9C0 8.81632 0.0158467 8.63496 0.0467323 8.45641C1.87383 10.6103 4.75659 12 8 12ZM8 16C11.2434 16 14.1262 14.6103 15.9533 12.4564C15.9842 12.635 16 12.8163 16 13C16 15.7614 12.4183 18 8 18C3.58172 18 0 15.7614 0 13C0 12.8163 0.0158467 12.635 0.0467323 12.4564C1.87383 14.6103 4.75659 16 8 16Z" fill="#F5F5F5"/>
</svg>
