<svg width="23" height="23" viewBox="0 0 23 23" fill="none" xmlns="http://www.w3.org/2000/svg">
<path fill-rule="evenodd" clip-rule="evenodd" d="M19.7467 1.67384L21.3244 3.25157C22.0777 4.00491 22.3962 4.47581 22.5874 5.10676C22.7654 5.69382 22.7654 6.30266 22.5874 6.88972C22.3962 7.52067 22.0777 7.99156 21.3244 8.7449L19.7467 10.3226C18.9933 11.076 18.5224 11.3944 17.8915 11.5857C17.3044 11.7636 16.6956 11.7636 16.1085 11.5857C15.4776 11.3944 15.0067 11.076 14.2533 10.3226L12.6756 8.7449C11.9223 7.99156 11.6038 7.52067 11.4126 6.88972C11.2346 6.30266 11.2346 5.69382 11.4126 5.10676C11.6038 4.47581 11.9223 4.00491 12.6756 3.25157L14.2533 1.67384C15.0067 0.920497 15.4776 0.602037 16.1085 0.410796C16.6956 0.23286 17.3044 0.23286 17.8915 0.410796C18.5224 0.602037 18.9933 0.920497 19.7467 1.67384ZM18.3325 3.08805C17.7926 2.54821 17.5849 2.40771 17.3113 2.32481C17.1025 2.26152 16.8975 2.26152 16.6887 2.32481C16.4151 2.40771 16.2074 2.54821 15.6675 3.08805L14.0898 4.66579C13.55 5.20563 13.4095 5.41337 13.3266 5.68689C13.2633 5.8957 13.2633 6.10078 13.3266 6.30959C13.4095 6.58311 13.55 6.79085 14.0898 7.33069L15.6675 8.90843C16.2074 9.44827 16.4151 9.58877 16.6887 9.67167C16.8975 9.73496 17.1025 9.73496 17.3113 9.67167C17.5849 9.58877 17.7926 9.44827 18.3325 8.90843L19.9102 7.33069C20.45 6.79085 20.5905 6.58311 20.6734 6.30959C20.7367 6.10078 20.7367 5.8957 20.6734 5.68689C20.5905 5.41337 20.45 5.20563 19.9102 4.66579L18.3325 3.08805ZM3.88437 0.99824H6.11563C7.18101 0.99824 7.73917 1.10603 8.32055 1.41695C8.86149 1.70625 9.29199 2.13675 9.58129 2.67769C9.89222 3.25907 10 3.81723 10 4.88261V7.11387C10 8.17925 9.89222 8.73741 9.58129 9.31879C9.29199 9.85973 8.86149 10.2902 8.32055 10.5795C7.73917 10.8905 7.18101 10.9982 6.11563 10.9982H3.88437C2.81899 10.9982 2.26083 10.8905 1.67945 10.5795C1.13851 10.2902 0.708006 9.85973 0.418711 9.31879C0.107785 8.73741 0 8.17925 0 7.11387V4.88261C0 3.81723 0.107785 3.25907 0.418711 2.67769C0.708006 2.13675 1.13851 1.70625 1.67945 1.41695C2.26083 1.10603 2.81899 0.99824 3.88437 0.99824ZM3.88437 2.99824C3.12092 2.99824 2.87468 3.04579 2.62265 3.18058C2.43025 3.28347 2.28523 3.42849 2.18234 3.62089C2.04755 3.87292 2 4.11916 2 4.88261V7.11387C2 7.87732 2.04755 8.12356 2.18234 8.37559C2.28523 8.56799 2.43025 8.71301 2.62265 8.8159C2.87468 8.95069 3.12092 8.99824 3.88437 8.99824H6.11563C6.87908 8.99824 7.12532 8.95069 7.37735 8.8159C7.56975 8.71301 7.71477 8.56799 7.81766 8.37559C7.95245 8.12356 8 7.87732 8 7.11387V4.88261C8 4.11916 7.95245 3.87292 7.81766 3.62089C7.71477 3.42849 7.56975 3.28347 7.37735 3.18058C7.12532 3.04579 6.87908 2.99824 6.11563 2.99824H3.88437ZM3.88437 12.9982H6.11563C7.18101 12.9982 7.73917 13.106 8.32055 13.417C8.86149 13.7062 9.29199 14.1368 9.58129 14.6777C9.89222 15.2591 10 15.8172 10 16.8826V19.1139C10 20.1793 9.89222 20.7374 9.58129 21.3188C9.29199 21.8597 8.86149 22.2902 8.32055 22.5795C7.73917 22.8905 7.18101 22.9982 6.11563 22.9982H3.88437C2.81899 22.9982 2.26083 22.8905 1.67945 22.5795C1.13851 22.2902 0.708006 21.8597 0.418711 21.3188C0.107785 20.7374 0 20.1793 0 19.1139V16.8826C0 15.8172 0.107785 15.2591 0.418711 14.6777C0.708006 14.1368 1.13851 13.7062 1.67945 13.417C2.26083 13.106 2.81899 12.9982 3.88437 12.9982ZM3.88437 14.9982C3.12092 14.9982 2.87468 15.0458 2.62265 15.1806C2.43025 15.2835 2.28523 15.4285 2.18234 15.6209C2.04755 15.8729 2 16.1192 2 16.8826V19.1139C2 19.8773 2.04755 20.1236 2.18234 20.3756C2.28523 20.568 2.43025 20.713 2.62265 20.8159C2.87468 20.9507 3.12092 20.9982 3.88437 20.9982H6.11563C6.87908 20.9982 7.12532 20.9507 7.37735 20.8159C7.56975 20.713 7.71477 20.568 7.81766 20.3756C7.95245 20.1236 8 19.8773 8 19.1139V16.8826C8 16.1192 7.95245 15.8729 7.81766 15.6209C7.71477 15.4285 7.56975 15.2835 7.37735 15.1806C7.12532 15.0458 6.87908 14.9982 6.11563 14.9982H3.88437ZM18.1156 12.9982H15.8844C14.819 12.9982 14.2608 13.106 13.6795 13.417C13.1385 13.7062 12.708 14.1368 12.4187 14.6777C12.1078 15.2591 12 15.8172 12 16.8826V19.1139C12 20.1793 12.1078 20.7374 12.4187 21.3188C12.708 21.8597 13.1385 22.2902 13.6795 22.5795C14.2608 22.8905 14.819 22.9982 15.8844 22.9982H18.1156C19.181 22.9982 19.7392 22.8905 20.3206 22.5795C20.8615 22.2902 21.292 21.8597 21.5813 21.3188C21.8922 20.7374 22 20.1793 22 19.1139V16.8826C22 15.8172 21.8922 15.2591 21.5813 14.6777C21.292 14.1368 20.8615 13.7062 20.3206 13.417C19.7392 13.106 19.181 12.9982 18.1156 12.9982ZM14.6226 15.1806C14.8747 15.0458 15.1209 14.9982 15.8844 14.9982H18.1156C18.8791 14.9982 19.1253 15.0458 19.3774 15.1806C19.5697 15.2835 19.7148 15.4285 19.8177 15.6209C19.9524 15.8729 20 16.1192 20 16.8826V19.1139C20 19.8773 19.9524 20.1236 19.8177 20.3756C19.7148 20.568 19.5697 20.713 19.3774 20.8159C19.1253 20.9507 18.8791 20.9982 18.1156 20.9982H15.8844C15.1209 20.9982 14.8747 20.9507 14.6226 20.8159C14.4302 20.713 14.2852 20.568 14.1823 20.3756C14.0476 20.1236 14 19.8773 14 19.1139V16.8826C14 16.1192 14.0476 15.8729 14.1823 15.6209C14.2852 15.4285 14.4302 15.2835 14.6226 15.1806Z" fill="#E1FF44"/>
</svg>
