<svg width="22" height="24" viewBox="0 0 22 24" fill="none" xmlns="http://www.w3.org/2000/svg">
<path fill-rule="evenodd" clip-rule="evenodd" d="M11 0C8.1006 0 5.59106 1.05594 3.4047 3.08629C1.22925 5.10649 0 7.87022 0 10.7602L0.0160674 19.2916C0.116205 21.4303 1.65229 22.9416 3.66321 22.9416C4.34566 22.9416 4.84042 22.805 5.445 22.5093L5.9384 22.2534C6.27296 22.0819 6.43034 22.0444 6.68051 22.0864C6.80187 22.1069 6.94121 22.178 7.16005 22.3428L7.75691 22.8231C8.74546 23.6074 9.66285 24 11 24C12.2513 24 13.1228 23.6597 14.036 22.9723L14.2325 22.8196C14.2505 22.8053 14.3018 22.7633 14.3664 22.7105L14.3666 22.7104C14.5031 22.5988 14.6987 22.4389 14.7645 22.388C15.0163 22.1934 15.1727 22.1111 15.3195 22.0864C15.5339 22.0504 15.6802 22.0728 15.9283 22.188L16.0616 22.2534C16.1188 22.2828 16.1821 22.3163 16.3226 22.3909C17.0388 22.7687 17.569 22.9416 18.3368 22.9416C20.3527 22.9416 21.8292 21.4251 21.9812 19.3633L22 10.7621C22 7.87022 20.7707 5.10649 18.5953 3.08629C16.3569 1.00761 13.9354 0 11 0ZM11 2C13.4155 2 15.3559 2.80744 17.2343 4.55182C19.0061 6.19715 20 8.43172 20 10.7602L19.9839 19.2879C19.9086 20.2743 19.2589 20.9416 18.3368 20.9416C18.0031 20.9416 17.7735 20.8803 17.4169 20.7044L16.9741 20.4738C16.2906 20.1233 15.7293 19.9894 14.9878 20.1141C14.5231 20.1923 14.1385 20.3738 13.722 20.6711L13.5413 20.8057C13.4469 20.8787 13.1991 21.0814 13.0667 21.1896L13.0667 21.1897L13.0662 21.1901C13.0226 21.2257 12.9916 21.2511 12.983 21.258C12.3215 21.7872 11.8287 22 11 22C10.2464 22 9.75857 21.8206 9.17749 21.3923L9.00001 21.2563L8.95167 21.217L8.95156 21.2169C8.82427 21.1133 8.48512 20.837 8.36337 20.7453C7.91103 20.4046 7.50408 20.1969 7.01218 20.1141C6.27066 19.9894 5.70944 20.1233 5.02588 20.4738L4.74445 20.6219C4.28996 20.8616 4.04459 20.9416 3.66321 20.9416C2.734 20.9416 2.06415 20.2825 2.01495 19.2425L2 10.7583C2 8.43172 2.99389 6.19715 4.76565 4.55182C6.59386 2.85408 8.62365 2 11 2ZM8.5 10.75C8.5 9.7835 7.7165 9 6.75 9C5.7835 9 5 9.7835 5 10.75C5 11.7165 5.7835 12.5 6.75 12.5C7.7165 12.5 8.5 11.7165 8.5 10.75ZM14.2433 15.081C13.8738 14.6705 13.2415 14.6372 12.831 15.0067C11.7972 15.9372 10.7661 15.9372 9.71589 15.3701C9.4455 15.2241 9.25298 15.0823 9.16896 15.0067L9.07051 14.9286C8.66273 14.6446 8.09774 14.7021 7.75671 15.081C7.38725 15.4915 7.42052 16.1238 7.83103 16.4933C8.02479 16.6677 8.34154 16.9009 8.76559 17.1299C10.4932 18.0628 12.4251 18.0628 14.169 16.4933C14.5795 16.1238 14.6128 15.4915 14.2433 15.081ZM15.7306 11.662L15.831 11.7442C16.2415 12.1123 16.8738 12.0792 17.2433 11.6702C17.6128 11.2612 17.5795 10.6313 17.169 10.2632C16.1195 9.3223 14.9284 9.3223 13.8952 9.87809C13.6448 10.0128 13.4553 10.1518 13.331 10.2632C12.9205 10.6313 12.8872 11.2612 13.2567 11.6702C13.5977 12.0477 14.1627 12.105 14.5705 11.8221L14.669 11.7442C14.6835 11.7312 14.7487 11.6833 14.8455 11.6313C15.1657 11.459 15.4329 11.4418 15.7306 11.662Z" fill="#F5F5F5"/>
</svg>
