<svg width="20" height="16" viewBox="0 0 20 16" fill="none" xmlns="http://www.w3.org/2000/svg">
<path fill-rule="evenodd" clip-rule="evenodd" d="M10.0007 0.667969C10.271 0.667969 10.5245 0.799059 10.6807 1.01962L13.7448 5.34535L17.8581 2.48388C18.1304 2.29449 18.489 2.28456 18.7713 2.4586C19.0536 2.63264 19.2059 2.95751 19.159 3.28582L17.4923 14.9525C17.4337 15.363 17.0821 15.668 16.6673 15.668H3.33401C2.9193 15.668 2.5677 15.363 2.50905 14.9525L0.842385 3.28582C0.795484 2.95751 0.947724 2.63264 1.23003 2.4586C1.51234 2.28456 1.87098 2.29449 2.14323 2.48388L6.2566 5.34535L9.32066 1.01962C9.47689 0.799059 9.73039 0.667969 10.0007 0.667969ZM10.0007 2.94301L7.13903 6.98298C6.8746 7.35629 6.35867 7.44664 5.98312 7.18539L2.76305 4.94534L4.05676 14.0013H15.9446L17.2383 4.94534L14.0182 7.18539C13.6427 7.44664 13.1268 7.35629 12.8623 6.98298L10.0007 2.94301Z" fill="#F5F5F5"/>
</svg>
