<svg width="20" height="24" viewBox="0 0 20 24" fill="none" xmlns="http://www.w3.org/2000/svg">
<path fill-rule="evenodd" clip-rule="evenodd" d="M11.2574 -0.0349903C11.7563 -0.116592 12.2627 0.058557 12.6046 0.430931C12.9223 0.776985 12.9634 1.22206 12.9796 1.4141C12.9997 1.6518 12.9996 1.95354 12.9996 2.27398L12.9996 8.99968L17.3889 8.99967C17.6217 8.99963 17.8597 8.99958 18.0549 9.01734C18.2426 9.0344 18.5946 9.0796 18.9035 9.3249C19.2599 9.6078 19.4685 10.0371 19.4708 10.4921C19.4728 10.8866 19.2909 11.1913 19.1884 11.3494C19.0817 11.5139 18.9347 11.701 18.7908 11.884L10.191 22.8292C9.99308 23.0812 9.80668 23.3184 9.64403 23.493C9.51264 23.6339 9.20534 23.9585 8.74173 24.0343C8.24287 24.1159 7.73645 23.9408 7.3946 23.5684C7.07692 23.2224 7.0358 22.7773 7.01959 22.5853C6.99952 22.3475 6.99955 22.0458 6.99958 21.7254L6.99959 14.9997L2.61026 14.9997C2.37744 14.9997 2.13948 14.9998 1.94422 14.982C1.75658 14.9649 1.4046 14.9198 1.09563 14.6744C0.739307 14.3916 0.530639 13.9622 0.528337 13.5073C0.52634 13.1128 0.708259 12.8081 0.810772 12.65C0.917445 12.4855 1.0645 12.2984 1.20837 12.1153C1.21565 12.1061 1.22293 12.0968 1.23018 12.0876L9.80814 1.1702C10.0061 0.918205 10.1925 0.680916 10.3551 0.506399C10.4865 0.365411 10.7938 0.040844 11.2574 -0.0349903ZM10.9996 2.89099L3.05705 12.9997H7.19959C7.20719 12.9997 7.2149 12.9997 7.22271 12.9997C7.34183 12.9996 7.48409 12.9996 7.60942 13.0098C7.75463 13.0217 7.96263 13.0521 8.18057 13.1632C8.46281 13.307 8.69229 13.5364 8.83609 13.8187C8.94714 14.0366 8.97759 14.2446 8.98945 14.3898C8.99969 14.5152 8.99964 14.6574 8.99959 14.7765C8.99959 14.7844 8.99959 14.7921 8.99959 14.7997V21.1084L16.9421 10.9997H12.7996C12.792 10.9997 12.7843 10.9997 12.7765 10.9997C12.6573 10.9997 12.5151 10.9998 12.3898 10.9895C12.2445 10.9777 12.0365 10.9472 11.8186 10.8362C11.5364 10.6924 11.3069 10.4629 11.1631 10.1807C11.052 9.96272 11.0216 9.75472 11.0097 9.60951C10.9995 9.48418 10.9995 9.34192 10.9996 9.22281C10.9996 9.21499 10.9996 9.20728 10.9996 9.19968V2.89099Z" fill="#E1FF28"/>
</svg>
