<svg width="20" height="16" viewBox="0 0 20 16" fill="none" xmlns="http://www.w3.org/2000/svg">
<path fill-rule="evenodd" clip-rule="evenodd" d="M9.9997 0.667969C10.27 0.667969 10.5235 0.799059 10.6797 1.01962L13.7438 5.34535L17.8571 2.48388C18.1294 2.29449 18.488 2.28456 18.7703 2.4586C19.0527 2.63264 19.2049 2.95751 19.158 3.28582L17.4913 14.9525C17.4327 15.363 17.0811 15.668 16.6664 15.668H3.33303C2.91832 15.668 2.56672 15.363 2.50808 14.9525L0.841409 3.28582C0.794507 2.95751 0.946747 2.63264 1.22906 2.4586C1.51137 2.28456 1.87001 2.29449 2.14225 2.48388L6.25562 5.34535L9.31968 1.01962C9.47591 0.799059 9.72941 0.667969 9.9997 0.667969ZM9.9997 2.94301L7.13805 6.98298C6.87363 7.35629 6.35769 7.44664 5.98215 7.18539L2.76207 4.94534L4.05578 14.0013H15.9436L17.2373 4.94534L14.0173 7.18539C13.6417 7.44664 13.1258 7.35629 12.8613 6.98298L9.9997 2.94301Z" fill="#F5F5F5"/>
</svg>
